<?xml version="1.0" encoding="UTF-8" standalone="no"?>
<!DOCTYPE svg PUBLIC "-//W3C//DTD SVG 1.1//EN" "http://www.w3.org/Graphics/SVG/1.1/DTD/svg11.dtd">
<svg version="1.1" xmlns="http://www.w3.org/2000/svg" xmlns:xlink="http://www.w3.org/1999/xlink" preserveAspectRatio="xMidYMid meet" viewBox="21.048520660813114 -0.9995006450002109 55.9019599683742 99.99900129000042" width="51.9" height="96"><defs><path d="M59.55 0C45.56 0 36.52 9.27 36.52 23.63C36.52 24.35 36.52 27.98 36.52 34.52C29.01 34.52 24.84 34.52 24.01 34.52C22.92 34.52 22.05 35.4 22.05 36.48C22.05 38.06 22.05 50.68 22.05 52.26C22.05 53.34 22.93 54.22 24.01 54.22C24.84 54.22 29.01 54.22 36.52 54.22C36.52 78.11 36.52 91.39 36.52 94.04C36.52 95.12 37.4 96 38.48 96C40.11 96 53.18 96 54.81 96C55.89 96 56.77 95.12 56.77 94.04C56.77 91.39 56.77 78.11 56.77 54.22C65.55 54.22 70.43 54.22 71.4 54.22C72.49 54.22 73.36 53.34 73.36 52.26C73.36 50.68 73.37 38.06 73.37 36.48C73.37 35.96 73.16 35.46 72.79 35.09C72.43 34.73 71.93 34.52 71.41 34.52C70.43 34.52 65.55 34.52 56.77 34.52C56.77 28.98 56.77 25.9 56.77 25.28C56.77 20.85 57.83 18.59 63.61 18.59C64.45 18.59 71.16 18.59 71.99 18.59C73.07 18.59 73.95 17.71 73.95 16.63C73.95 15.17 73.95 3.44 73.95 1.98C73.95 0.9 73.08 0.02 72 0.02C69.51 0.02 60.79 0 59.55 0Z" id="h1ozMIHnXy"></path></defs><g><g><use xlink:href="#h1ozMIHnXy" opacity="1" fill="#4267b2" fill-opacity="1"></use><g><use xlink:href="#h1ozMIHnXy" opacity="1" fill-opacity="0" stroke="#000000" stroke-width="1" stroke-opacity="0"></use></g></g></g></svg>