<?xml version="1.0" encoding="UTF-8" standalone="no"?>
<!DOCTYPE svg PUBLIC "-//W3C//DTD SVG 1.1//EN" "http://www.w3.org/Graphics/SVG/1.1/DTD/svg11.dtd">
<svg version="1.1" xmlns="http://www.w3.org/2000/svg" xmlns:xlink="http://www.w3.org/1999/xlink" preserveAspectRatio="xMidYMid meet" viewBox="0.2934982479582935 -0.00831858134492336 510.4371277337533 426.04086443553524" width="506.44" height="422.04"><defs><path d="M191.64 396.98C203.63 396.98 208.81 391.83 215.04 385.65C218.78 382.07 237.52 364.16 271.24 331.94C341.1 383.1 379.91 411.53 387.67 417.21C409.03 429.12 424.07 422.85 429.84 397.57C434.93 373.7 460.41 254.32 506.27 39.42C506.28 39.41 506.29 39.4 506.29 39.4C513.07 7.84 494.87 -4.51 474.06 3.24C429.14 20.44 69.73 158.04 24.81 175.24C-5.86 187.14 -5.39 204.23 19.59 211.98C27.25 214.35 65.53 226.26 134.45 247.7C294.53 147.54 383.46 91.9 401.24 80.77C413.8 72.45 425.22 77.05 415.82 85.37C387.05 111.2 315.12 175.8 200.02 279.14C194.99 349.85 192.19 389.12 191.64 396.98Z" id="ai6AqkgJf"></path><path d="M191.64 396.98C203.63 396.98 208.81 391.83 215.04 385.65C218.78 382.07 237.52 364.16 271.24 331.94C341.1 383.1 379.91 411.53 387.67 417.21C409.03 429.12 424.07 422.85 429.84 397.57C434.93 373.7 460.41 254.32 506.27 39.42C506.28 39.41 506.29 39.4 506.29 39.4C513.07 7.84 494.87 -4.51 474.06 3.24C429.14 20.44 69.73 158.04 24.81 175.24C-5.86 187.14 -5.39 204.23 19.59 211.98C27.25 214.35 65.53 226.26 134.45 247.7C294.53 147.54 383.46 91.9 401.24 80.77C413.8 72.45 425.22 77.05 415.82 85.37C387.05 111.2 315.12 175.8 200.02 279.14C194.99 349.85 192.19 389.12 191.64 396.98Z" id="bju6lv4sU"></path></defs><g><g><use xlink:href="#ai6AqkgJf" opacity="1" fill="#30a3e6" fill-opacity="1"></use><g><use xlink:href="#ai6AqkgJf" opacity="1" fill-opacity="0" stroke="#000000" stroke-width="1" stroke-opacity="0"></use></g></g><g><use xlink:href="#bju6lv4sU" opacity="1" fill="#30a3e6" fill-opacity="1"></use><g><use xlink:href="#bju6lv4sU" opacity="1" fill-opacity="0" stroke="#000000" stroke-width="1" stroke-opacity="0"></use></g></g></g></svg>