<?xml version="1.0" encoding="UTF-8" standalone="no"?>
<!DOCTYPE svg PUBLIC "-//W3C//DTD SVG 1.1//EN" "http://www.w3.org/Graphics/SVG/1.1/DTD/svg11.dtd">
<svg version="1.1" xmlns="http://www.w3.org/2000/svg" xmlns:xlink="http://www.w3.org/1999/xlink" preserveAspectRatio="xMidYMid meet" viewBox="-1 116.67150326897956 552.0012052225401 316.65873897639545" width="548" height="312.66"><defs><path d="M543.24 396.47C533.73 379.35 515.56 358.33 488.74 333.41C488.7 333.37 488.52 333.18 488.18 332.84L487.89 332.56L487.6 332.27C487.43 332.27 487.34 332.27 487.32 332.27C475.14 320.67 467.44 312.87 464.21 308.87C458.3 301.26 456.98 293.56 460.21 285.76C462.49 279.86 471.05 267.41 485.89 248.38C493.69 238.3 499.87 230.22 504.43 224.13C537.34 180.38 551.61 152.42 547.23 140.25C547.06 139.96 545.7 137.69 545.53 137.4C544.39 135.69 541.44 134.12 536.69 132.7C531.93 131.27 525.84 131.03 518.42 131.98C510.21 132.04 444.47 132.49 436.25 132.55C434.92 132.08 433.02 132.12 430.55 132.7C428.07 133.27 426.84 133.55 426.84 133.55C426.74 133.6 426.26 133.84 425.41 134.27C424.72 134.78 424.35 135.07 424.27 135.13C423.32 135.69 422.27 136.69 421.13 138.12C419.99 139.54 419.04 141.21 418.28 143.11C409.34 166.13 399.17 187.53 387.75 207.31C380.71 219.1 374.25 229.33 368.35 237.98C362.45 246.63 357.5 253.01 353.51 257.1C349.52 261.19 345.91 264.46 342.67 266.94C339.43 269.41 336.96 270.46 335.25 270.08C333.54 269.69 331.93 269.32 330.4 268.94C327.74 267.22 325.6 264.89 323.98 261.94C322.36 259 321.27 255.29 320.7 250.82C320.13 246.34 319.8 242.5 319.7 239.26C319.61 236.03 319.65 231.46 319.85 225.56C320.04 219.66 320.13 215.67 320.13 213.58C320.13 206.35 320.27 198.51 320.56 190.04C320.84 181.58 321.08 174.87 321.27 169.93C321.46 164.98 321.55 159.75 321.55 154.23C321.55 148.72 321.22 144.39 320.56 141.25C319.9 138.12 318.89 135.07 317.57 132.12C316.23 129.17 314.28 126.89 311.72 125.27C309.15 123.66 305.96 122.37 302.16 121.42C292.08 119.14 279.24 117.9 263.64 117.71C228.26 117.33 205.53 119.62 195.45 124.56C191.45 126.65 187.84 129.51 184.61 133.12C181.18 137.31 180.7 139.59 183.18 139.97C194.59 141.68 202.67 145.77 207.43 152.23C207.6 152.58 208.97 155.32 209.14 155.66C210.47 158.13 211.81 162.51 213.14 168.78C214.47 175.06 215.33 182 215.7 189.61C216.65 203.5 216.65 215.38 215.7 225.27C214.75 235.17 213.85 242.87 212.99 248.39C212.14 253.9 210.85 258.37 209.14 261.79C207.43 265.22 206.29 267.31 205.72 268.07C205.14 268.83 204.67 269.31 204.29 269.5C201.82 270.44 199.25 270.93 196.59 270.93C193.92 270.93 190.69 269.59 186.89 266.93C183.08 264.27 179.14 260.61 175.05 255.94C170.96 251.28 166.34 244.77 161.21 236.4C156.07 228.03 150.75 218.14 145.23 206.73C144.77 205.9 141.12 199.28 140.67 198.45C137.81 193.13 133.91 185.37 128.97 175.2C124.02 165.02 119.65 155.18 115.84 145.66C114.32 141.67 112.04 138.63 109 136.54C108.85 136.45 107.71 135.76 107.57 135.68C106.62 134.92 105.1 134.11 103 133.25C100.91 132.39 98.73 131.78 96.44 131.4C88.62 131.46 26.08 131.91 18.26 131.97C10.28 131.97 4.85 133.78 2 137.39C1.89 137.56 0.97 138.93 0.86 139.1C0.29 140.05 0 141.58 0 143.67C0 145.76 0.57 148.33 1.71 151.37C13.13 178.19 25.54 204.06 38.95 228.98C52.35 253.9 64.01 273.97 73.9 289.18C83.79 304.4 93.87 318.76 104.14 332.26C114.41 345.77 121.21 354.42 124.54 358.22C127.87 362.03 130.49 364.88 132.39 366.78C133.1 367.47 138.81 372.95 139.52 373.63C144.09 378.2 150.79 383.67 159.64 390.04C168.48 396.41 178.28 402.69 189.02 408.87C199.77 415.05 212.28 420.09 226.55 423.99C240.81 427.89 254.7 429.46 268.2 428.7C271.48 428.7 297.73 428.7 301.02 428.7C307.67 428.13 312.71 426.04 316.14 422.42C316.25 422.28 317.16 421.14 317.27 420.99C318.04 419.86 318.75 418.09 319.41 415.72C320.08 413.34 320.41 410.72 320.41 407.88C320.22 399.7 320.84 392.33 322.26 385.77C323.68 379.21 325.3 374.26 327.12 370.93C328.93 367.6 330.97 364.79 333.25 362.52C335.53 360.24 337.15 358.85 338.11 358.38C339.06 357.9 339.81 357.57 340.38 357.38C344.95 355.86 350.32 357.33 356.51 361.81C362.69 366.28 368.49 371.8 373.91 378.35C379.34 384.92 385.85 392.29 393.46 400.46C401.07 408.65 407.72 414.73 413.43 418.73C414 419.07 418.56 421.81 419.13 422.15C422.94 424.43 427.89 426.53 433.98 428.43C440.05 430.33 445.38 430.81 449.95 429.86C457.25 429.74 515.69 428.83 522.99 428.72C530.21 428.72 535.83 427.52 539.82 425.15C543.82 422.77 546.19 420.15 546.96 417.3C547.72 414.45 547.76 411.21 547.1 407.59C546.43 403.99 545.76 401.46 545.09 400.04C544.43 398.61 543.81 397.42 543.24 396.47Z" id="a2onC1AqH6"></path></defs><g><g><use xlink:href="#a2onC1AqH6" opacity="1" fill="#4a76a8" fill-opacity="1"></use><g><use xlink:href="#a2onC1AqH6" opacity="1" fill-opacity="0" stroke="#000000" stroke-width="1" stroke-opacity="0"></use></g></g></g></svg>