<?xml version="1.0" encoding="UTF-8" standalone="no"?>
<!DOCTYPE svg PUBLIC "-//W3C//DTD SVG 1.1//EN" "http://www.w3.org/Graphics/SVG/1.1/DTD/svg11.dtd">
<svg version="1.1" xmlns="http://www.w3.org/2000/svg" xmlns:xlink="http://www.w3.org/1999/xlink" preserveAspectRatio="xMidYMid meet" viewBox="-1 99 644 444" width="640" height="440"><defs><path d="M538.24 103.68C499.92 101.08 403.56 100 320.08 100C236.44 100 140.04 101.08 101.76 103.64C63.48 105.84 44.6 111.48 27.08 142.4C9.2 173.24 0 226.36 0 319.88C0 319.96 0 320 0 320C0 320.08 0 320.12 0 320.12C0 320.13 0 320.19 0 320.2C0 413.32 9.2 466.84 27.08 497.36C44.6 528.24 63.44 533.84 101.72 536.44C140.04 538.68 236.44 540 320.08 540C403.56 540 499.92 538.68 538.28 536.48C576.64 533.88 595.48 528.28 612.84 497.4C630.88 466.88 640 413.36 640 320.24C640 320.24 640 320.12 640 320.04C640 320.04 640 319.96 640 319.92C640 226.36 630.88 173.24 612.8 142.4C595.44 111.52 576.6 105.84 538.24 103.68ZM240 200L440 320L240 440L240 200Z" id="af8Y42W38"></path></defs><g><g><use xlink:href="#af8Y42W38" opacity="1" fill="#ff0000" fill-opacity="1"></use><g><use xlink:href="#af8Y42W38" opacity="1" fill-opacity="0" stroke="#000000" stroke-width="1" stroke-opacity="0"></use></g></g></g></svg>