<?xml version="1.0" encoding="UTF-8" standalone="no"?>
<!DOCTYPE svg PUBLIC "-//W3C//DTD SVG 1.1//EN" "http://www.w3.org/Graphics/SVG/1.1/DTD/svg11.dtd">
<svg version="1.1" xmlns="http://www.w3.org/2000/svg" xmlns:xlink="http://www.w3.org/1999/xlink" preserveAspectRatio="xMidYMid meet" viewBox="4.625 3.310030128687252 555.875 520.3467599947696" width="551.88" height="516.35"><defs><path d="M287 501.2C286.44 500.93 283.64 499.6 278.6 497.2C275.9 498.4 274.4 499.07 274.1 499.2C264.9 503.2 250.8 508 241.2 510.4C225.8 514.2 214.8 515.5 196 515.5C177.2 515.5 166.2 514.2 150.8 510.4C126.4 504.3 99.7 491.8 81 477.7C73.4 471.9 53.9 452.9 47 444.5C27 420 11.8 384.8 6.9 351.5C5.2 339.9 5.2 310.1 6.9 298.5C9.9 278.2 16.7 256.7 26 238.5C37.1 216.9 45.8 205.2 64.1 187.5C77 175 82.9 170.4 95 163.1C99.6 160.2 103.8 157.4 104.1 156.7C104.5 156 105.3 152.8 106 149.5C108.9 135.3 120.7 108 130.7 92.6C145 70.5 166.6 48.9 188.6 34.7C236.9 3.5 300.3 -4.3 354.5 14.2C395.8 28.4 430.8 55.6 455 92.5C465.5 108.6 476.2 133.7 480.6 152.5C482.7 161.6 484.9 176.4 485 181.5C485.1 185 485.6 185.9 489.6 189C496.5 194.4 513.9 212.6 520.6 221.5C532.1 236.7 538.6 248.8 546.1 269C554.3 290.8 557.5 308.6 557.5 333.5C557.5 358.4 554.3 376.2 546.1 398C535.3 426.8 524.4 443.8 502.6 465.6C489.6 478.6 479.4 486.7 466 494.7C447.1 506 421.9 515.1 399.5 518.6C390.5 520 362.2 521.2 356.5 520.4C354.9 520.2 349.5 519.5 344.5 518.9C327.3 516.8 305.8 510.2 287 501.2ZM549 333.5C549 285.1 530.1 240.1 495.2 205.7C494.61 205.11 491.64 202.14 486.3 196.8C485.88 199.68 485.65 201.28 485.6 201.6C485.3 204.2 485 208.6 485 211.4C484.9 229.6 476.9 259.4 466 281.5C455.8 302.3 444.9 317.4 428.1 334C416 345.9 406.4 353.5 394 360.9C381.9 368 382.3 367.6 379.5 377.3C372.6 401.3 359.6 426.6 345 444.5C337.7 453.4 318.4 472.2 310.3 478.2C306.9 480.7 300.7 484.7 296.6 487.1C292.4 489.5 289.1 491.8 289 492.1C289 493.2 306.7 500.6 317 503.8C326.9 506.9 337.4 509.3 347.5 510.9C357.5 512.4 384.1 512.1 395.3 510.5C448.5 502.5 494.3 472.6 522.2 427.8C539.7 399.6 549 366.9 549 333.5ZM269.8 491.6C267.52 490.1 266.25 489.27 266 489.1C244.9 474.9 222.6 451.2 209.3 429C198.1 410.4 187.5 380.8 185.4 362.5C185.36 362.1 185.16 360.1 184.8 356.5C180.54 353.5 178.17 351.83 177.7 351.5C173.8 348.8 165.7 341.8 159.7 336C142.1 319.1 129.3 301.4 119.1 279.7C110 260.5 105.8 246.5 101.9 223C100.5 214.5 100.1 185.9 101.3 175.7C101.35 175.25 101.62 172.98 102.1 168.9C100.42 169.98 99.49 170.58 99.3 170.7C46.2 204.5 14 262.8 14 325C14 373.3 33.1 419.2 67.4 453.6C95.7 481.8 130.2 499 171.4 505.5C182.9 507.3 208 507.3 219.9 505.5C236.3 503 251.5 498.9 266.6 492.9C266.81 492.81 267.88 492.38 269.8 491.6ZM370.2 373.6C344.9 384.5 321.1 389.3 293 389.3C261.1 389.3 235.4 383.4 207.5 369.6C200.4 366 194.4 363.2 194.3 363.4C194.2 363.5 195 367.4 196.1 372.1C207 418.3 232.9 456.2 271.3 482.1C275.3 484.8 278.7 487 278.9 487C279.1 487 282.9 484.9 287.4 482.3C325 460.6 354.6 424.4 368.6 382.7C371.4 374.4 371.7 372.9 370.2 373.6ZM374.7 361.1C375.48 356.72 375.91 354.29 376 353.8C377.8 342.6 378.4 315.1 377 304.6C370.2 253 344.4 208.4 304.6 179C303.94 178.52 300.64 176.12 294.7 171.8C291.94 173.12 290.41 173.85 290.1 174C256.1 190.4 225.8 221.6 209 257.5C197.3 282.4 192 306.5 192 334.9C192 335.96 192 341.26 192 350.8C196.8 353.56 199.47 355.09 200 355.4C220.9 367.5 247.2 376.6 268 378.9C273.2 379.5 279.1 380.2 281 380.4C286.5 381.1 309.8 380.1 318.6 379C333.9 376.9 356.4 370.3 368.1 364.4C368.54 364.18 370.74 363.08 374.7 361.1ZM466.1 258C473 238 476 221.4 476.3 201.4C476.31 200.61 476.38 196.64 476.5 189.5C472.3 186.62 469.97 185.02 469.5 184.7C455 174.9 431.1 164.5 411.5 159.6C387.4 153.5 353.5 153.5 329.5 159.6C326.2 160.4 319.2 162.5 313.9 164.2C313.26 164.41 310.06 165.44 304.3 167.3C307.96 170.06 309.99 171.59 310.4 171.9C318.4 177.8 337.7 196.6 345 205.5C365 230 380.2 265 385.2 298.5C386.7 309 386.8 341.7 385.3 350.3C384.8 353.4 384.4 356 384.6 356C384.8 356 387.2 354.6 390.1 353C404.9 344.2 427.8 323.2 439.9 307.2C450.6 293.1 460.4 274.7 466.1 258ZM238.4 201.4C251.8 188.1 261.7 180.2 276 171.7C276.63 171.33 279.76 169.46 285.4 166.1C278.56 162.86 274.76 161.06 274 160.7C224.8 137.5 169.3 137 120.3 159.5C111 163.7 111.8 162.3 110 178.5C103.6 237.7 128 297.8 174.5 337.4C175.03 337.85 177.7 340.12 182.5 344.2C182.86 335.8 183.06 331.13 183.1 330.2C183.5 322.5 184.3 312.3 185 307.4C188.1 284.6 197.6 257.5 209.3 238C217.3 224.6 225.4 214.4 238.4 201.4ZM315 14.4C277.6 10 242.3 16.5 207.8 34.2C174.7 51.3 147.3 78.7 130.2 111.8C123.8 124.3 117.3 140.5 115.5 148.8C115.45 149.02 115.22 150.12 114.8 152.1C117.14 151.14 118.44 150.61 118.7 150.5C127.6 146.6 141.7 141.9 150.8 139.6C166.2 135.8 177.2 134.5 196 134.5C205.6 134.5 217.6 135.1 222.5 135.9C243.2 138.9 264.3 145.7 283.5 155.5C284.3 155.91 288.3 157.98 295.5 161.7C301.8 159.36 305.3 158.06 306 157.8C318.4 153.2 332 149.7 344.5 147.9C356.1 146.2 384.9 146.2 396.5 147.9C420.4 151.4 447 160.8 467 172.8C471.6 175.6 475.5 177.8 475.6 177.7C475.7 177.6 475.2 173.5 474.5 168.5C472.5 154.4 466.4 134.5 459.6 119.7C433 62.1 377.9 22 315 14.4Z" id="b3FLAfRREC"></path><path d="M287 501.2C286.44 500.93 283.64 499.6 278.6 497.2C275.9 498.4 274.4 499.07 274.1 499.2C264.9 503.2 250.8 508 241.2 510.4C225.8 514.2 214.8 515.5 196 515.5C177.2 515.5 166.2 514.2 150.8 510.4C126.4 504.3 99.7 491.8 81 477.7C73.4 471.9 53.9 452.9 47 444.5C27 420 11.8 384.8 6.9 351.5C5.2 339.9 5.2 310.1 6.9 298.5C9.9 278.2 16.7 256.7 26 238.5C37.1 216.9 45.8 205.2 64.1 187.5C77 175 82.9 170.4 95 163.1C99.6 160.2 103.8 157.4 104.1 156.7C104.5 156 105.3 152.8 106 149.5C108.9 135.3 120.7 108 130.7 92.6C145 70.5 166.6 48.9 188.6 34.7C236.9 3.5 300.3 -4.3 354.5 14.2C395.8 28.4 430.8 55.6 455 92.5C465.5 108.6 476.2 133.7 480.6 152.5C482.7 161.6 484.9 176.4 485 181.5C485.1 185 485.6 185.9 489.6 189C496.5 194.4 513.9 212.6 520.6 221.5C532.1 236.7 538.6 248.8 546.1 269C554.3 290.8 557.5 308.6 557.5 333.5C557.5 358.4 554.3 376.2 546.1 398C535.3 426.8 524.4 443.8 502.6 465.6C489.6 478.6 479.4 486.7 466 494.7C447.1 506 421.9 515.1 399.5 518.6C390.5 520 362.2 521.2 356.5 520.4C354.9 520.2 349.5 519.5 344.5 518.9C327.3 516.8 305.8 510.2 287 501.2ZM549 333.5C549 285.1 530.1 240.1 495.2 205.7C494.61 205.11 491.64 202.14 486.3 196.8C485.88 199.68 485.65 201.28 485.6 201.6C485.3 204.2 485 208.6 485 211.4C484.9 229.6 476.9 259.4 466 281.5C455.8 302.3 444.9 317.4 428.1 334C416 345.9 406.4 353.5 394 360.9C381.9 368 382.3 367.6 379.5 377.3C372.6 401.3 359.6 426.6 345 444.5C337.7 453.4 318.4 472.2 310.3 478.2C306.9 480.7 300.7 484.7 296.6 487.1C292.4 489.5 289.1 491.8 289 492.1C289 493.2 306.7 500.6 317 503.8C326.9 506.9 337.4 509.3 347.5 510.9C357.5 512.4 384.1 512.1 395.3 510.5C448.5 502.5 494.3 472.6 522.2 427.8C539.7 399.6 549 366.9 549 333.5ZM269.8 491.6C267.52 490.1 266.25 489.27 266 489.1C244.9 474.9 222.6 451.2 209.3 429C198.1 410.4 187.5 380.8 185.4 362.5C185.36 362.1 185.16 360.1 184.8 356.5C180.54 353.5 178.17 351.83 177.7 351.5C173.8 348.8 165.7 341.8 159.7 336C142.1 319.1 129.3 301.4 119.1 279.7C110 260.5 105.8 246.5 101.9 223C100.5 214.5 100.1 185.9 101.3 175.7C101.35 175.25 101.62 172.98 102.1 168.9C100.42 169.98 99.49 170.58 99.3 170.7C46.2 204.5 14 262.8 14 325C14 373.3 33.1 419.2 67.4 453.6C95.7 481.8 130.2 499 171.4 505.5C182.9 507.3 208 507.3 219.9 505.5C236.3 503 251.5 498.9 266.6 492.9C266.81 492.81 267.88 492.38 269.8 491.6ZM370.2 373.6C344.9 384.5 321.1 389.3 293 389.3C261.1 389.3 235.4 383.4 207.5 369.6C200.4 366 194.4 363.2 194.3 363.4C194.2 363.5 195 367.4 196.1 372.1C207 418.3 232.9 456.2 271.3 482.1C275.3 484.8 278.7 487 278.9 487C279.1 487 282.9 484.9 287.4 482.3C325 460.6 354.6 424.4 368.6 382.7C371.4 374.4 371.7 372.9 370.2 373.6ZM374.7 361.1C375.48 356.72 375.91 354.29 376 353.8C377.8 342.6 378.4 315.1 377 304.6C370.2 253 344.4 208.4 304.6 179C303.94 178.52 300.64 176.12 294.7 171.8C291.94 173.12 290.41 173.85 290.1 174C256.1 190.4 225.8 221.6 209 257.5C197.3 282.4 192 306.5 192 334.9C192 335.96 192 341.26 192 350.8C196.8 353.56 199.47 355.09 200 355.4C220.9 367.5 247.2 376.6 268 378.9C273.2 379.5 279.1 380.2 281 380.4C286.5 381.1 309.8 380.1 318.6 379C333.9 376.9 356.4 370.3 368.1 364.4C368.54 364.18 370.74 363.08 374.7 361.1ZM466.1 258C473 238 476 221.4 476.3 201.4C476.31 200.61 476.38 196.64 476.5 189.5C472.3 186.62 469.97 185.02 469.5 184.7C455 174.9 431.1 164.5 411.5 159.6C387.4 153.5 353.5 153.5 329.5 159.6C326.2 160.4 319.2 162.5 313.9 164.2C313.26 164.41 310.06 165.44 304.3 167.3C307.96 170.06 309.99 171.59 310.4 171.9C318.4 177.8 337.7 196.6 345 205.5C365 230 380.2 265 385.2 298.5C386.7 309 386.8 341.7 385.3 350.3C384.8 353.4 384.4 356 384.6 356C384.8 356 387.2 354.6 390.1 353C404.9 344.2 427.8 323.2 439.9 307.2C450.6 293.1 460.4 274.7 466.1 258ZM238.4 201.4C251.8 188.1 261.7 180.2 276 171.7C276.63 171.33 279.76 169.46 285.4 166.1C278.56 162.86 274.76 161.06 274 160.7C224.8 137.5 169.3 137 120.3 159.5C111 163.7 111.8 162.3 110 178.5C103.6 237.7 128 297.8 174.5 337.4C175.03 337.85 177.7 340.12 182.5 344.2C182.86 335.8 183.06 331.13 183.1 330.2C183.5 322.5 184.3 312.3 185 307.4C188.1 284.6 197.6 257.5 209.3 238C217.3 224.6 225.4 214.4 238.4 201.4ZM315 14.4C277.6 10 242.3 16.5 207.8 34.2C174.7 51.3 147.3 78.7 130.2 111.8C123.8 124.3 117.3 140.5 115.5 148.8C115.45 149.02 115.22 150.12 114.8 152.1C117.14 151.14 118.44 150.61 118.7 150.5C127.6 146.6 141.7 141.9 150.8 139.6C166.2 135.8 177.2 134.5 196 134.5C205.6 134.5 217.6 135.1 222.5 135.9C243.2 138.9 264.3 145.7 283.5 155.5C284.3 155.91 288.3 157.98 295.5 161.7C301.8 159.36 305.3 158.06 306 157.8C318.4 153.2 332 149.7 344.5 147.9C356.1 146.2 384.9 146.2 396.5 147.9C420.4 151.4 447 160.8 467 172.8C471.6 175.6 475.5 177.8 475.6 177.7C475.7 177.6 475.2 173.5 474.5 168.5C472.5 154.4 466.4 134.5 459.6 119.7C433 62.1 377.9 22 315 14.4Z" id="a12o0TLkAO"></path><path d="M394.5 379C396.9 379 397 379.2 397 385.5C397 385.93 397 388.1 397 392C397.43 392 399.6 392 403.5 392C407.4 392 409.57 392 410 392C410 388.1 410 385.93 410 385.5C410 379.2 410.1 379 412.5 379C412.67 379 413.5 379 415 379C415 379.97 415 384.8 415 393.5C415 402.2 415 407.03 415 408C413.5 408 412.67 408 412.5 408C410.1 408 410 407.8 410 401.5C410 401.07 410 398.9 410 395C409.57 395 407.4 395 403.5 395C399.6 395 397.43 395 397 395C397 398.9 397 401.07 397 401.5C397 407.8 396.9 408 394.5 408C394.33 408 393.5 408 392 408C392 407.03 392 402.2 392 393.5L392 379C393.55 379 394.39 379 394.5 379Z" id="cAuzXhJu"></path><path d="M394.5 379C396.9 379 397 379.2 397 385.5C397 385.93 397 388.1 397 392C397.43 392 399.6 392 403.5 392C407.4 392 409.57 392 410 392C410 388.1 410 385.93 410 385.5C410 379.2 410.1 379 412.5 379C412.67 379 413.5 379 415 379C415 379.97 415 384.8 415 393.5C415 402.2 415 407.03 415 408C413.5 408 412.67 408 412.5 408C410.1 408 410 407.8 410 401.5C410 401.07 410 398.9 410 395C409.57 395 407.4 395 403.5 395C399.6 395 397.43 395 397 395C397 398.9 397 401.07 397 401.5C397 407.8 396.9 408 394.5 408C394.33 408 393.5 408 392 408C392 407.03 392 402.2 392 393.5L392 379C393.55 379 394.39 379 394.5 379Z" id="b2f96q9ak"></path><path d="M428.8 379C438.6 379 441 380.7 441 387.5C441 391 440.5 392.3 438.6 393.7C438.44 393.82 437.64 394.42 436.2 395.5C436.43 395.92 437.6 398.02 439.7 401.8C441.8 405.52 442.97 407.59 443.2 408C441.34 408 440.31 408 440.1 408C437.3 408 436.7 407.4 434 402C431.5 397.1 430.5 396 428.5 396C426.1 396 426 396.3 426 402C426 407.7 425.9 408 423.5 408C423.33 408 422.5 408 421 408C421 407.03 421 402.2 421 393.5L421 379C425.85 379 428.45 379 428.8 379ZM429.6 382.3C429.36 382.26 428.16 382.06 426 381.7C426 382.09 426 384.02 426 387.5C426 390.98 426 392.91 426 393.3C428.16 392.94 429.36 392.74 429.6 392.7C431.6 392.4 433.8 391.6 434.6 390.9C435.4 390.3 436 388.7 436 387.5C436 384.6 434.1 383 429.6 382.3Z" id="bRkAggHKN"></path><path d="M428.8 379C438.6 379 441 380.7 441 387.5C441 391 440.5 392.3 438.6 393.7C438.44 393.82 437.64 394.42 436.2 395.5C436.43 395.92 437.6 398.02 439.7 401.8C441.8 405.52 442.97 407.59 443.2 408C441.34 408 440.31 408 440.1 408C437.3 408 436.7 407.4 434 402C431.5 397.1 430.5 396 428.5 396C426.1 396 426 396.3 426 402C426 407.7 425.9 408 423.5 408C423.33 408 422.5 408 421 408C421 407.03 421 402.2 421 393.5L421 379C425.85 379 428.45 379 428.8 379ZM429.6 382.3C429.36 382.26 428.16 382.06 426 381.7C426 382.09 426 384.02 426 387.5C426 390.98 426 392.91 426 393.3C428.16 392.94 429.36 392.74 429.6 392.7C431.6 392.4 433.8 391.6 434.6 390.9C435.4 390.3 436 388.7 436 387.5C436 384.6 434.1 383 429.6 382.3Z" id="a6dIcBlel7"></path><path d="M445.5 382C442.2 382 441 381.6 441 380.5C441 379.3 443 379 453 379C463 379 465 379.3 465 380.5C465 381.6 463.8 382 460.5 382C460.2 382 458.7 382 456 382C456 382.87 456 387.2 456 395L456 408L453 408L450 408L450 395L450 382C447.2 382 445.7 382 445.5 382Z" id="akJIgsfTx"></path><path d="M445.5 382C442.2 382 441 381.6 441 380.5C441 379.3 443 379 453 379C463 379 465 379.3 465 380.5C465 381.6 463.8 382 460.5 382C460.2 382 458.7 382 456 382C456 382.87 456 387.2 456 395L456 408L453 408L450 408L450 395L450 382C447.2 382 445.7 382 445.5 382Z" id="aggVzAIOT"></path><path d="M474 386C479.9 386 483 388.9 483 394.3C483 394.55 483 395.78 483 398C478.8 398 476.47 398 476 398C472.2 398 469 398.3 469 398.6C469 400 471.2 403 472.8 403.9C474 404.6 475.6 404.4 477.8 403.3C482.1 401.2 484.3 402.9 481.5 406C480.1 407.5 478.4 408 474.4 408C469.7 408 468.9 407.7 466.5 404.8C464.1 402 463.8 400.9 464.2 396.3C464.8 389 467.7 386 474 386ZM470 393C469 394.9 469.3 395 473.5 395C476.7 395 478 394.6 478 393.6C478 392.8 477.3 391.4 476.4 390.6C474.6 388.7 471.7 389.8 470 393Z" id="aJn7ArUT8"></path><path d="M474 386C479.9 386 483 388.9 483 394.3C483 394.55 483 395.78 483 398C478.8 398 476.47 398 476 398C472.2 398 469 398.3 469 398.6C469 400 471.2 403 472.8 403.9C474 404.6 475.6 404.4 477.8 403.3C482.1 401.2 484.3 402.9 481.5 406C480.1 407.5 478.4 408 474.4 408C469.7 408 468.9 407.7 466.5 404.8C464.1 402 463.8 400.9 464.2 396.3C464.8 389 467.7 386 474 386ZM470 393C469 394.9 469.3 395 473.5 395C476.7 395 478 394.6 478 393.6C478 392.8 477.3 391.4 476.4 390.6C474.6 388.7 471.7 389.8 470 393Z" id="d34lbfSiFe"></path><path d="M495.6 386C500.2 386 503.4 388.1 504.5 391.8C505 393.6 504.7 394 502.9 394C501.7 394 499.6 392.8 498.3 391.4C496.1 389 495.7 388.9 493.7 390.3C489.7 392.9 489.6 401 493.6 403.7C495.4 404.9 496 404.8 498.3 403C501 400.9 505 400.3 505 402C505 402.6 503.9 404.2 502.5 405.5C499.1 409 491.9 409 488.5 405.6C485.5 402.6 484.5 397.2 486 392.6C487.5 388 490.4 386 495.6 386Z" id="b3RSEliQTH"></path><path d="M495.6 386C500.2 386 503.4 388.1 504.5 391.8C505 393.6 504.7 394 502.9 394C501.7 394 499.6 392.8 498.3 391.4C496.1 389 495.7 388.9 493.7 390.3C489.7 392.9 489.6 401 493.6 403.7C495.4 404.9 496 404.8 498.3 403C501 400.9 505 400.3 505 402C505 402.6 503.9 404.2 502.5 405.5C499.1 409 491.9 409 488.5 405.6C485.5 402.6 484.5 397.2 486 392.6C487.5 388 490.4 386 495.6 386Z" id="b4onc2f2R"></path><path d="M509.5 378C511.8 378 512 378.4 512 382.3C512 382.58 512 383.98 512 386.5C514.88 386.32 516.48 386.22 516.8 386.2C524.1 385.7 525 387 525 398.6C525 407.9 525 408 522.5 408C520.1 408 520.1 407.8 519.8 399.3C519.5 390.8 519.4 390.5 517.1 390.2C513.3 389.6 512 392.4 512 400.7C512 407.8 511.9 408 509.5 408C509.33 408 508.5 408 507 408C507 407 507 402 507 393L507 378C508.55 378 509.39 378 509.5 378Z" id="aft9fMqna"></path><path d="M509.5 378C511.8 378 512 378.4 512 382.3C512 382.58 512 383.98 512 386.5C514.88 386.32 516.48 386.22 516.8 386.2C524.1 385.7 525 387 525 398.6C525 407.9 525 408 522.5 408C520.1 408 520.1 407.8 519.8 399.3C519.5 390.8 519.4 390.5 517.1 390.2C513.3 389.6 512 392.4 512 400.7C512 407.8 511.9 408 509.5 408C509.33 408 508.5 408 507 408C507 407 507 402 507 393L507 378C508.55 378 509.39 378 509.5 378Z" id="b5TIBlsxC7"></path><path d="M43.5 352C51.3 352 53 352.3 53 353.5C53 354.7 51.6 355 46 355C45.53 355 43.2 355 39 355C39 355.3 39 356.8 39 359.5C39 362.2 39 363.7 39 364C42.6 364 44.6 364 45 364C49.7 364 51 364.3 51 365.5C51 366.7 49.7 367 45 367C44.6 367 42.6 367 39 367C39 367.37 39 369.2 39 372.5C39 375.8 39 377.63 39 378C43.2 378 45.53 378 46 378C51.6 378 53 378.3 53 379.5C53 380.7 51.3 381 43.5 381C42.87 381 39.7 381 34 381C34 380.03 34 375.2 34 366.5L34 352C39.91 352 43.08 352 43.5 352Z" id="doIXmfci7"></path><path d="M43.5 352C51.3 352 53 352.3 53 353.5C53 354.7 51.6 355 46 355C45.53 355 43.2 355 39 355C39 355.3 39 356.8 39 359.5C39 362.2 39 363.7 39 364C42.6 364 44.6 364 45 364C49.7 364 51 364.3 51 365.5C51 366.7 49.7 367 45 367C44.6 367 42.6 367 39 367C39 367.37 39 369.2 39 372.5C39 375.8 39 377.63 39 378C43.2 378 45.53 378 46 378C51.6 378 53 378.3 53 379.5C53 380.7 51.3 381 43.5 381C42.87 381 39.7 381 34 381C34 380.03 34 375.2 34 366.5L34 352C39.91 352 43.08 352 43.5 352Z" id="gZnzyCRQx"></path><path d="M64.4 359.2C64.71 359.22 66.24 359.32 69 359.5C69 356.98 69 355.58 69 355.3C69 351.4 69.2 351 71.5 351C71.67 351 72.5 351 74 351C74 351.99 74 356.96 74 365.9C74 374.84 74 379.81 74 380.8C69.56 380.86 67.09 380.89 66.6 380.9C60.7 381 59 380.6 57.6 379.1C54.9 376.1 53.8 370.6 55 366.2C56.5 360.5 58.9 358.7 64.4 359.2ZM64.5 363C61.3 363 60 365 60 370C60 375 61.3 377 64.5 377C65.7 377 67.1 376.5 67.8 375.8C69.4 374.2 69.4 365.8 67.8 364.2C67.1 363.5 65.7 363 64.5 363Z" id="bYbRdyg03"></path><path d="M64.4 359.2C64.71 359.22 66.24 359.32 69 359.5C69 356.98 69 355.58 69 355.3C69 351.4 69.2 351 71.5 351C71.67 351 72.5 351 74 351C74 351.99 74 356.96 74 365.9C74 374.84 74 379.81 74 380.8C69.56 380.86 67.09 380.89 66.6 380.9C60.7 381 59 380.6 57.6 379.1C54.9 376.1 53.8 370.6 55 366.2C56.5 360.5 58.9 358.7 64.4 359.2ZM64.5 363C61.3 363 60 365 60 370C60 375 61.3 377 64.5 377C65.7 377 67.1 376.5 67.8 375.8C69.4 374.2 69.4 365.8 67.8 364.2C67.1 363.5 65.7 363 64.5 363Z" id="l1nWy8ru0V"></path><path d="M80.5 355C77.2 355 76 354.6 76 353.5C76 352.3 78 352 88 352C98 352 100 352.3 100 353.5C100 354.6 98.8 355 95.5 355C95.2 355 93.7 355 91 355C91 355.87 91 360.2 91 368L91 381L88 381L85 381L85 368L85 355C82.2 355 80.7 355 80.5 355Z" id="c6IPHrKUD"></path><path d="M80.5 355C77.2 355 76 354.6 76 353.5C76 352.3 78 352 88 352C98 352 100 352.3 100 353.5C100 354.6 98.8 355 95.5 355C95.2 355 93.7 355 91 355C91 355.87 91 360.2 91 368L91 381L88 381L85 381L85 368L85 355C82.2 355 80.7 355 80.5 355Z" id="d3G4Qz5pCO"></path><path d="M101.6 362.1C103.8 359.4 104.8 359 109 359C113.1 359 114.2 359.4 115.9 361.6C117.1 363.1 118 365.7 118 367.6C118 367.83 118 368.96 118 371C113.8 371 111.47 371 111 371C107.2 371 104 371.3 104 371.6C104 373 106.2 376 107.8 376.9C109 377.6 110.6 377.4 112.8 376.3C115.4 375 116.4 375 117.3 375.9C119.4 378.1 114.6 381 109 381C104.8 381 103.8 380.6 101.6 377.9C99.6 375.5 99 373.8 99 370C99 366.2 99.6 364.5 101.6 362.1ZM105.2 365.6C104.1 368 104.1 368 108.5 368C111.8 368 113 367.6 113 366.6C113 364.7 109.2 362 107.5 362.6C106.8 362.9 105.8 364.2 105.2 365.6Z" id="afnW3rzDs"></path><path d="M101.6 362.1C103.8 359.4 104.8 359 109 359C113.1 359 114.2 359.4 115.9 361.6C117.1 363.1 118 365.7 118 367.6C118 367.83 118 368.96 118 371C113.8 371 111.47 371 111 371C107.2 371 104 371.3 104 371.6C104 373 106.2 376 107.8 376.9C109 377.6 110.6 377.4 112.8 376.3C115.4 375 116.4 375 117.3 375.9C119.4 378.1 114.6 381 109 381C104.8 381 103.8 380.6 101.6 377.9C99.6 375.5 99 373.8 99 370C99 366.2 99.6 364.5 101.6 362.1ZM105.2 365.6C104.1 368 104.1 368 108.5 368C111.8 368 113 367.6 113 366.6C113 364.7 109.2 362 107.5 362.6C106.8 362.9 105.8 364.2 105.2 365.6Z" id="e2KhB2Al0i"></path><path d="M122.9 361.6C127.7 356.5 139 358.9 139 365C139 366.5 138.3 367 136.5 367C135 367 134 366.4 134 365.5C134 363.7 131.2 362.1 129 362.7C128 363 126.7 364.3 126.1 365.6C122.9 372.8 128.3 380.7 133.1 375.9C135.3 373.7 139 373.4 139 375.5C139 378.4 134.8 381 130 381C126.3 381 124.9 380.5 122.9 378.4C120.9 376.3 120.5 374.8 120.5 370C120.5 365.2 120.9 363.7 122.9 361.6Z" id="b1E7qDQmQL"></path><path d="M122.9 361.6C127.7 356.5 139 358.9 139 365C139 366.5 138.3 367 136.5 367C135 367 134 366.4 134 365.5C134 363.7 131.2 362.1 129 362.7C128 363 126.7 364.3 126.1 365.6C122.9 372.8 128.3 380.7 133.1 375.9C135.3 373.7 139 373.4 139 375.5C139 378.4 134.8 381 130 381C126.3 381 124.9 380.5 122.9 378.4C120.9 376.3 120.5 374.8 120.5 370C120.5 365.2 120.9 363.7 122.9 361.6Z" id="aZwWBlVaG"></path><path d="M144.5 351C146.8 351 147 351.4 147 355.3C147 355.58 147 356.98 147 359.5C149.76 359.32 151.29 359.22 151.6 359.2C158.8 358.6 160 360.3 160 371.7C160 380.9 160 381 157.5 381C155.1 381 155.1 380.8 154.8 372.3C154.5 364 154.4 363.5 152.2 363.2C148 362.6 147 364.6 147 373.1C147 380.9 147 381 144.5 381C144.33 381 143.5 381 142 381C142 380 142 375 142 366L142 351C143.55 351 144.39 351 144.5 351Z" id="a7HdzTSaW"></path><path d="M144.5 351C146.8 351 147 351.4 147 355.3C147 355.58 147 356.98 147 359.5C149.76 359.32 151.29 359.22 151.6 359.2C158.8 358.6 160 360.3 160 371.7C160 380.9 160 381 157.5 381C155.1 381 155.1 380.8 154.8 372.3C154.5 364 154.4 363.5 152.2 363.2C148 362.6 147 364.6 147 373.1C147 380.9 147 381 144.5 381C144.33 381 143.5 381 142 381C142 380 142 375 142 366L142 351C143.55 351 144.39 351 144.5 351Z" id="b4aSHYdIY"></path><path d="M212.5 296.5C217.2 291.7 226.7 293.7 228.5 299.8C229.5 303.2 224.7 302.9 223.2 299.4C221.6 296.1 217.1 296.4 215.2 300C213.7 302.9 214.2 310.3 216 312.5C218 314.9 221.9 314.4 223.2 311.5C223.9 309.8 225.1 309 226.7 309C228.8 309 229 309.4 228.5 311.3C227.4 315.1 224.2 317 219 317C214.9 317 213.8 316.6 212.1 314.4C210.5 312.3 210 310.3 210 305.3C210 299.8 210.4 298.6 212.5 296.5Z" id="bazEXWaVQ"></path><path d="M212.5 296.5C217.2 291.7 226.7 293.7 228.5 299.8C229.5 303.2 224.7 302.9 223.2 299.4C221.6 296.1 217.1 296.4 215.2 300C213.7 302.9 214.2 310.3 216 312.5C218 314.9 221.9 314.4 223.2 311.5C223.9 309.8 225.1 309 226.7 309C228.8 309 229 309.4 228.5 311.3C227.4 315.1 224.2 317 219 317C214.9 317 213.8 316.6 212.1 314.4C210.5 312.3 210 310.3 210 305.3C210 299.8 210.4 298.6 212.5 296.5Z" id="b5y69Eru"></path><path d="M232.1 302.6C233.7 300.5 235 300 238.5 300C242 300 243.3 300.5 244.9 302.6C246.1 304.1 247 306.7 247 308.5C247 310.3 246.1 312.9 244.9 314.4C243.3 316.5 242 317 238.5 317C235 317 233.7 316.5 232.1 314.4C230.9 312.9 230 310.3 230 308.5C230 306.7 230.9 304.1 232.1 302.6ZM235.5 311.6C237.2 314.2 239 314.6 240.8 312.8C242.5 311.1 242.3 305.5 240.5 304C236.9 301 232.7 307.4 235.5 311.6Z" id="c1t5e8SD1g"></path><path d="M232.1 302.6C233.7 300.5 235 300 238.5 300C242 300 243.3 300.5 244.9 302.6C246.1 304.1 247 306.7 247 308.5C247 310.3 246.1 312.9 244.9 314.4C243.3 316.5 242 317 238.5 317C235 317 233.7 316.5 232.1 314.4C230.9 312.9 230 310.3 230 308.5C230 306.7 230.9 304.1 232.1 302.6ZM235.5 311.6C237.2 314.2 239 314.6 240.8 312.8C242.5 311.1 242.3 305.5 240.5 304C236.9 301 232.7 307.4 235.5 311.6Z" id="g2NhGfuL4M"></path><path d="M251.4 300.8C252 300.4 254.2 300 256.3 300C259.9 300 260 299.9 260 296.5C260 293.7 260.4 293 262 293C263.9 293 264 293.7 264 305C264 305.8 264 309.8 264 317C260.58 317 258.68 317 258.3 317C255.1 317 252 316.6 251.4 316.2C249.6 315.1 248 311.3 248 308.5C248 305.7 249.6 301.9 251.4 300.8ZM253 308.4C253 313.3 256.4 315.7 258.9 312.6C260.6 310.6 259.9 304.9 257.8 303.7C255.4 302.1 253 304.5 253 308.4Z" id="a1Nc4Bfnsv"></path><path d="M251.4 300.8C252 300.4 254.2 300 256.3 300C259.9 300 260 299.9 260 296.5C260 293.7 260.4 293 262 293C263.9 293 264 293.7 264 305C264 305.8 264 309.8 264 317C260.58 317 258.68 317 258.3 317C255.1 317 252 316.6 251.4 316.2C249.6 315.1 248 311.3 248 308.5C248 305.7 249.6 301.9 251.4 300.8ZM253 308.4C253 313.3 256.4 315.7 258.9 312.6C260.6 310.6 259.9 304.9 257.8 303.7C255.4 302.1 253 304.5 253 308.4Z" id="a3Huf2tWn4"></path><path d="M274.4 300C279.5 300 282 302.2 282 306.8C282 307.01 282 308.08 282 310C278.7 310 276.87 310 276.5 310C270.8 310 269.8 310.8 272.6 313.1C273.8 314.1 274.8 314.1 277.3 313.2C281 311.8 283 313.1 281 315.5C279.2 317.7 270.8 317.5 268.7 315.2C266.5 312.8 266.5 305.2 268.6 302.2C269.8 300.5 271.1 300 274.4 300ZM274.4 307C276.4 307 278 306.6 278 306.1C278 304.2 274.9 302.6 273.2 303.6C270.2 305.6 270.7 307 274.4 307Z" id="d3amqB7IOP"></path><path d="M274.4 300C279.5 300 282 302.2 282 306.8C282 307.01 282 308.08 282 310C278.7 310 276.87 310 276.5 310C270.8 310 269.8 310.8 272.6 313.1C273.8 314.1 274.8 314.1 277.3 313.2C281 311.8 283 313.1 281 315.5C279.2 317.7 270.8 317.5 268.7 315.2C266.5 312.8 266.5 305.2 268.6 302.2C269.8 300.5 271.1 300 274.4 300ZM274.4 307C276.4 307 278 306.6 278 306.1C278 304.2 274.9 302.6 273.2 303.6C270.2 305.6 270.7 307 274.4 307Z" id="d4Ky9xvAOZ"></path><path d="M288.4 312.6C288.7 313.5 289.9 314 291 313.8C293.4 313.5 293.8 311.8 291.8 310.9C286 308.3 284.5 307.2 284.2 305.2C284 303.9 284.4 302.2 285 301.4C286.7 299.5 294.4 299.6 296.4 301.6C300 305.1 296.6 307.8 292.9 304.4C291.8 303.4 290.4 303 289.4 303.4C287.1 304.3 288.5 305.6 293.5 307.2C296.8 308.3 297.6 309 297.8 311.3C298.3 315.5 296.5 317 290.9 317C287.1 317 285.8 316.6 284.6 314.8C283.7 313.6 283 312.2 283 311.8C283 310.3 287.8 311 288.4 312.6Z" id="c164JEFYmH"></path><path d="M288.4 312.6C288.7 313.5 289.9 314 291 313.8C293.4 313.5 293.8 311.8 291.8 310.9C286 308.3 284.5 307.2 284.2 305.2C284 303.9 284.4 302.2 285 301.4C286.7 299.5 294.4 299.6 296.4 301.6C300 305.1 296.6 307.8 292.9 304.4C291.8 303.4 290.4 303 289.4 303.4C287.1 304.3 288.5 305.6 293.5 307.2C296.8 308.3 297.6 309 297.8 311.3C298.3 315.5 296.5 317 290.9 317C287.1 317 285.8 316.6 284.6 314.8C283.7 313.6 283 312.2 283 311.8C283 310.3 287.8 311 288.4 312.6Z" id="ex2AG0hbF"></path><path d="M308.5 294C314.5 294 316 294.3 316 295.5C316 296.7 314.7 297 310.5 297C310.13 297 308.3 297 305 297C305 297.23 305 298.4 305 300.5C305 302.6 305 303.77 305 304C308 304 309.67 304 310 304C313.8 304 315 304.4 315 305.5C315 306.6 313.8 307 310 307C309.67 307 308 307 305 307C305 310 305 311.67 305 312C305 316.3 304.7 317 303 317C301.1 317 301 316.3 301 305.5C301 303.97 301 300.13 301 294C305.5 294 308 294 308.5 294Z" id="aH85eqoVv"></path><path d="M308.5 294C314.5 294 316 294.3 316 295.5C316 296.7 314.7 297 310.5 297C310.13 297 308.3 297 305 297C305 297.23 305 298.4 305 300.5C305 302.6 305 303.77 305 304C308 304 309.67 304 310 304C313.8 304 315 304.4 315 305.5C315 306.6 313.8 307 310 307C309.67 307 308 307 305 307C305 310 305 311.67 305 312C305 316.3 304.7 317 303 317C301.1 317 301 316.3 301 305.5C301 303.97 301 300.13 301 294C305.5 294 308 294 308.5 294Z" id="b2iv2X3rSl"></path><path d="M319.1 302.6C320.7 300.5 322 300 325.3 300C330.1 300 331.2 300.6 332.9 303.7C334.9 307.7 333.8 314.1 330.6 316.2C330 316.6 327.6 317 325.3 317C322 317 320.7 316.5 319.1 314.4C317.9 312.9 317 310.3 317 308.5C317 306.7 317.9 304.1 319.1 302.6ZM322 308.4C322 314.1 325.8 315.8 328.6 311.5C330 309.4 330.1 308.4 329.2 306.4C326.8 301.3 322 302.6 322 308.4Z" id="a101cnIR1a"></path><path d="M319.1 302.6C320.7 300.5 322 300 325.3 300C330.1 300 331.2 300.6 332.9 303.7C334.9 307.7 333.8 314.1 330.6 316.2C330 316.6 327.6 317 325.3 317C322 317 320.7 316.5 319.1 314.4C317.9 312.9 317 310.3 317 308.5C317 306.7 317.9 304.1 319.1 302.6ZM322 308.4C322 314.1 325.8 315.8 328.6 311.5C330 309.4 330.1 308.4 329.2 306.4C326.8 301.3 322 302.6 322 308.4Z" id="c10ZhjEyJ"></path><path d="M341 300C346.5 300 348.1 302.3 343.5 303.4C341.2 304 341 304.4 341 310.5C341 316.8 340.9 317 338.5 317C336 317 336 316.9 336 308.5C336 307.37 336 304.53 336 300C339 300 340.67 300 341 300Z" id="c1KODc63Zh"></path><path d="M341 300C346.5 300 348.1 302.3 343.5 303.4C341.2 304 341 304.4 341 310.5C341 316.8 340.9 317 338.5 317C336 317 336 316.9 336 308.5C336 307.37 336 304.53 336 300C339 300 340.67 300 341 300Z" id="a2tKtIbybm"></path><path d="M353.1 300C356.9 300 357 299.9 357 296.5C357 293.4 357.3 293 359.5 293C359.67 293 360.5 293 362 293C362 293.8 362 297.8 362 305C362 312.2 362 316.2 362 317C358.1 317 355.93 317 355.5 317C349.3 317 349 316.9 347.4 313.8C345.6 310.4 345.9 304 348 301.5C348.7 300.6 350.9 300 353.1 300ZM352 312.5C354.5 315.5 356.5 313.8 356.8 308.7C357 305.1 356.7 303.8 355.5 303.4C351.8 301.9 349.1 309 352 312.5Z" id="ebc8iToGa"></path><path d="M353.1 300C356.9 300 357 299.9 357 296.5C357 293.4 357.3 293 359.5 293C359.67 293 360.5 293 362 293C362 293.8 362 297.8 362 305C362 312.2 362 316.2 362 317C358.1 317 355.93 317 355.5 317C349.3 317 349 316.9 347.4 313.8C345.6 310.4 345.9 304 348 301.5C348.7 300.6 350.9 300 353.1 300ZM352 312.5C354.5 315.5 356.5 313.8 356.8 308.7C357 305.1 356.7 303.8 355.5 303.4C351.8 301.9 349.1 309 352 312.5Z" id="b2WsYwCc"></path><path d="M219.5 71C225.4 71 228.4 72.7 229.8 77C230.9 79.9 230.8 80 228.1 80C226.1 80 225 79.3 224.2 77.5C222.6 74.1 216.7 73.9 214.6 77.3C212.4 80.8 211.8 85.5 213 89.9C214.2 94.5 216.7 96.3 221.3 95.8C224.1 95.5 224.5 95.1 224.8 92.3C225.1 89.2 224.9 89 222.1 89C220 89 219 88.5 219 87.5C219 86.3 220.3 86 225 86C225.4 86 227.4 86 231 86C231 88.88 231 90.48 231 90.8C231 96.1 230.5 97.2 227.3 98.9C224 100.6 214.9 100.3 212.1 98.4C209 96.2 207 91.1 207 85.5C207 75.8 211.2 71 219.5 71Z" id="f4Vw9TGkQa"></path><path d="M219.5 71C225.4 71 228.4 72.7 229.8 77C230.9 79.9 230.8 80 228.1 80C226.1 80 225 79.3 224.2 77.5C222.6 74.1 216.7 73.9 214.6 77.3C212.4 80.8 211.8 85.5 213 89.9C214.2 94.5 216.7 96.3 221.3 95.8C224.1 95.5 224.5 95.1 224.8 92.3C225.1 89.2 224.9 89 222.1 89C220 89 219 88.5 219 87.5C219 86.3 220.3 86 225 86C225.4 86 227.4 86 231 86C231 88.88 231 90.48 231 90.8C231 96.1 230.5 97.2 227.3 98.9C224 100.6 214.9 100.3 212.1 98.4C209 96.2 207 91.1 207 85.5C207 75.8 211.2 71 219.5 71Z" id="e5Dn21l34"></path><path d="M247 85C247 84 246.1 82.6 245 82C243.5 81.2 242.6 81.4 241 83C238.4 85.6 235 85.7 235 83.1C235 80.1 238.9 78 244.1 78C250.6 78 251.6 79.6 252.2 90.7C252.23 91.31 252.4 94.34 252.7 99.8C248.02 99.86 245.42 99.89 244.9 99.9C237.9 100 236.9 99.7 235.6 97.8C231.9 92.5 235.6 87 242.8 87C246.3 87 247 86.7 247 85ZM244.6 90C241.6 90 238.9 92.5 239.6 94.5C240.2 96.1 242.7 96.4 245.4 95.4C246.3 95.1 247 93.7 247 92.4C247 90.5 246.5 90 244.6 90Z" id="bbM54wz22"></path><path d="M247 85C247 84 246.1 82.6 245 82C243.5 81.2 242.6 81.4 241 83C238.4 85.6 235 85.7 235 83.1C235 80.1 238.9 78 244.1 78C250.6 78 251.6 79.6 252.2 90.7C252.23 91.31 252.4 94.34 252.7 99.8C248.02 99.86 245.42 99.89 244.9 99.9C237.9 100 236.9 99.7 235.6 97.8C231.9 92.5 235.6 87 242.8 87C246.3 87 247 86.7 247 85ZM244.6 90C241.6 90 238.9 92.5 239.6 94.5C240.2 96.1 242.7 96.4 245.4 95.4C246.3 95.1 247 93.7 247 92.4C247 90.5 246.5 90 244.6 90Z" id="bqQPR8Ufd"></path><path d="M263.7 78.1C267.9 78.1 271.9 78.5 272.6 79.1C273.4 79.8 274 79.8 274.5 79C275.5 77.3 284.6 77.8 286.1 79.6C286.9 80.6 287.6 84.8 287.8 90.6C287.83 91.23 287.96 94.36 288.2 100C288 100 287 100 285.2 100L282.1 100L281.8 91.3L281.5 82.5L278.5 82.5L275.5 82.5L275.2 91.3L274.9 100L272 100L269.1 100L268.8 91.3L268.5 82.5L265.5 82.5L262.5 82.5L262.2 91.3L261.9 100L259 100L256 100L256 89.1L256 78.2C260.79 78.14 263.36 78.11 263.7 78.1Z" id="aPMfQ6ju"></path><path d="M263.7 78.1C267.9 78.1 271.9 78.5 272.6 79.1C273.4 79.8 274 79.8 274.5 79C275.5 77.3 284.6 77.8 286.1 79.6C286.9 80.6 287.6 84.8 287.8 90.6C287.83 91.23 287.96 94.36 288.2 100C288 100 287 100 285.2 100L282.1 100L281.8 91.3L281.5 82.5L278.5 82.5L275.5 82.5L275.2 91.3L274.9 100L272 100L269.1 100L268.8 91.3L268.5 82.5L265.5 82.5L262.5 82.5L262.2 91.3L261.9 100L259 100L256 100L256 89.1L256 78.2C260.79 78.14 263.36 78.11 263.7 78.1Z" id="kBMMiZGl8"></path><path d="M300.3 78C306.2 78 309 80.3 309.7 85.8C309.74 86.08 309.94 87.48 310.3 90C305.98 90 303.58 90 303.1 90C295.7 90 294.6 90.8 297.3 94.2C299.2 96.6 301.6 97 303.9 95.4C306 93.9 310 94.3 310 96C310 98 305.3 100 300.7 100C296.9 100 295.4 99.5 293.5 97.5C291.4 95.5 291 94.1 291 89.2C291 81.3 293.8 78 300.3 78ZM296 86C296 86.6 298 87 300.5 87C303 87 305 86.7 305 86.4C305 85 302.9 82.2 301.5 81.6C299.9 81 296 84.1 296 86Z" id="e5PcxR2VHV"></path><path d="M300.3 78C306.2 78 309 80.3 309.7 85.8C309.74 86.08 309.94 87.48 310.3 90C305.98 90 303.58 90 303.1 90C295.7 90 294.6 90.8 297.3 94.2C299.2 96.6 301.6 97 303.9 95.4C306 93.9 310 94.3 310 96C310 98 305.3 100 300.7 100C296.9 100 295.4 99.5 293.5 97.5C291.4 95.5 291 94.1 291 89.2C291 81.3 293.8 78 300.3 78ZM296 86C296 86.6 298 87 300.5 87C303 87 305 86.7 305 86.4C305 85 302.9 82.2 301.5 81.6C299.9 81 296 84.1 296 86Z" id="bidLa0jhH"></path><path d="M315.5 74C312.2 74 311 73.6 311 72.5C311 71.3 313 71 323 71C333 71 335 71.3 335 72.5C335 73.6 333.8 74 330 74C329.67 74 328 74 325 74C325 74.87 325 79.2 325 87L325 100L322.5 100L320 100L320 87L320 74C317.2 74 315.7 74 315.5 74Z" id="aibdLNHEX"></path><path d="M315.5 74C312.2 74 311 73.6 311 72.5C311 71.3 313 71 323 71C333 71 335 71.3 335 72.5C335 73.6 333.8 74 330 74C329.67 74 328 74 325 74C325 74.87 325 79.2 325 87L325 100L322.5 100L320 100L320 87L320 74C317.2 74 315.7 74 315.5 74Z" id="a4ycSxtb"></path><path d="M336.6 81.1C338.8 78.4 339.8 78 344 78C348.1 78 349.2 78.4 350.9 80.6C352.1 82.1 353 84.7 353 86.6C353 86.83 353 87.96 353 90C348.8 90 346.47 90 346 90C342.2 90 339 90.3 339 90.6C339 92 341.2 95 342.8 95.9C344 96.6 345.6 96.4 347.8 95.3C350.4 94 351.4 94 352.3 94.9C354.4 97.1 349.6 100 344 100C339.8 100 338.8 99.6 336.6 96.9C334.6 94.5 334 92.8 334 89C334 85.2 334.6 83.5 336.6 81.1ZM340.2 84.6C339.1 87 339.1 87 343.5 87C346.8 87 348 86.6 348 85.6C348 83.7 344.2 81 342.5 81.6C341.8 81.9 340.8 83.2 340.2 84.6Z" id="c2IYM7fbGX"></path><path d="M336.6 81.1C338.8 78.4 339.8 78 344 78C348.1 78 349.2 78.4 350.9 80.6C352.1 82.1 353 84.7 353 86.6C353 86.83 353 87.96 353 90C348.8 90 346.47 90 346 90C342.2 90 339 90.3 339 90.6C339 92 341.2 95 342.8 95.9C344 96.6 345.6 96.4 347.8 95.3C350.4 94 351.4 94 352.3 94.9C354.4 97.1 349.6 100 344 100C339.8 100 338.8 99.6 336.6 96.9C334.6 94.5 334 92.8 334 89C334 85.2 334.6 83.5 336.6 81.1ZM340.2 84.6C339.1 87 339.1 87 343.5 87C346.8 87 348 86.6 348 85.6C348 83.7 344.2 81 342.5 81.6C341.8 81.9 340.8 83.2 340.2 84.6Z" id="c3BLIyjfRZ"></path><path d="M357.9 80.6C362.7 75.5 374 77.9 374 84C374 85.5 373.3 86 371.5 86C370 86 369 85.4 369 84.5C369 82.7 366.2 81.1 364 81.7C363 82 361.7 83.3 361.1 84.6C357.9 91.8 363.3 99.7 368.1 94.9C370.3 92.7 374 92.4 374 94.5C374 97.4 369.8 100 365 100C361.3 100 359.9 99.5 357.9 97.4C355.9 95.3 355.5 93.8 355.5 89C355.5 84.2 355.9 82.7 357.9 80.6Z" id="daNfEsHsL"></path><path d="M357.9 80.6C362.7 75.5 374 77.9 374 84C374 85.5 373.3 86 371.5 86C370 86 369 85.4 369 84.5C369 82.7 366.2 81.1 364 81.7C363 82 361.7 83.3 361.1 84.6C357.9 91.8 363.3 99.7 368.1 94.9C370.3 92.7 374 92.4 374 94.5C374 97.4 369.8 100 365 100C361.3 100 359.9 99.5 357.9 97.4C355.9 95.3 355.5 93.8 355.5 89C355.5 84.2 355.9 82.7 357.9 80.6Z" id="e1GelNMkFb"></path><path d="M379.5 70C381.8 70 382 70.4 382 74.3C382 74.58 382 75.98 382 78.5C384.94 78.32 386.57 78.22 386.9 78.2C393.8 77.7 395 79.7 395 91.2C395 99.9 395 100 392.5 100C390.1 100 390 99.8 390 92.6C390 83.7 389.5 82 386.6 82C382.9 82 382 83.9 382 92.2C382 99.9 382 100 379.5 100C379.33 100 378.5 100 377 100C377 99 377 94 377 85L377 70C378.55 70 379.39 70 379.5 70Z" id="a1KW0Trage"></path><path d="M379.5 70C381.8 70 382 70.4 382 74.3C382 74.58 382 75.98 382 78.5C384.94 78.32 386.57 78.22 386.9 78.2C393.8 77.7 395 79.7 395 91.2C395 99.9 395 100 392.5 100C390.1 100 390 99.8 390 92.6C390 83.7 389.5 82 386.6 82C382.9 82 382 83.9 382 92.2C382 99.9 382 100 379.5 100C379.33 100 378.5 100 377 100C377 99 377 94 377 85L377 70C378.55 70 379.39 70 379.5 70Z" id="b5civDfX15"></path></defs><g><g><use xlink:href="#b3FLAfRREC" opacity="1" fill="#ffffff" fill-opacity="1"></use><g><use xlink:href="#b3FLAfRREC" opacity="1" fill-opacity="0" stroke="#000000" stroke-width="1" stroke-opacity="0"></use></g></g><g><use xlink:href="#a12o0TLkAO" opacity="1" fill="#000000" fill-opacity="0"></use><g><use xlink:href="#a12o0TLkAO" opacity="1" fill-opacity="0" stroke="#000000" stroke-width="1" stroke-opacity="0"></use></g></g><g><use xlink:href="#cAuzXhJu" opacity="1" fill="#ffffff" fill-opacity="1"></use><g><use xlink:href="#cAuzXhJu" opacity="1" fill-opacity="0" stroke="#000000" stroke-width="1" stroke-opacity="0"></use></g></g><g><use xlink:href="#b2f96q9ak" opacity="1" fill="#000000" fill-opacity="0"></use><g><use xlink:href="#b2f96q9ak" opacity="1" fill-opacity="0" stroke="#000000" stroke-width="1" stroke-opacity="0"></use></g></g><g><use xlink:href="#bRkAggHKN" opacity="1" fill="#ffffff" fill-opacity="1"></use><g><use xlink:href="#bRkAggHKN" opacity="1" fill-opacity="0" stroke="#000000" stroke-width="1" stroke-opacity="0"></use></g></g><g><use xlink:href="#a6dIcBlel7" opacity="1" fill="#000000" fill-opacity="0"></use><g><use xlink:href="#a6dIcBlel7" opacity="1" fill-opacity="0" stroke="#000000" stroke-width="1" stroke-opacity="0"></use></g></g><g><use xlink:href="#akJIgsfTx" opacity="1" fill="#ffffff" fill-opacity="1"></use><g><use xlink:href="#akJIgsfTx" opacity="1" fill-opacity="0" stroke="#000000" stroke-width="1" stroke-opacity="0"></use></g></g><g><use xlink:href="#aggVzAIOT" opacity="1" fill="#000000" fill-opacity="0"></use><g><use xlink:href="#aggVzAIOT" opacity="1" fill-opacity="0" stroke="#000000" stroke-width="1" stroke-opacity="0"></use></g></g><g><use xlink:href="#aJn7ArUT8" opacity="1" fill="#ffffff" fill-opacity="1"></use><g><use xlink:href="#aJn7ArUT8" opacity="1" fill-opacity="0" stroke="#000000" stroke-width="1" stroke-opacity="0"></use></g></g><g><use xlink:href="#d34lbfSiFe" opacity="1" fill="#000000" fill-opacity="0"></use><g><use xlink:href="#d34lbfSiFe" opacity="1" fill-opacity="0" stroke="#000000" stroke-width="1" stroke-opacity="0"></use></g></g><g><use xlink:href="#b3RSEliQTH" opacity="1" fill="#ffffff" fill-opacity="1"></use><g><use xlink:href="#b3RSEliQTH" opacity="1" fill-opacity="0" stroke="#000000" stroke-width="1" stroke-opacity="0"></use></g></g><g><use xlink:href="#b4onc2f2R" opacity="1" fill="#000000" fill-opacity="0"></use><g><use xlink:href="#b4onc2f2R" opacity="1" fill-opacity="0" stroke="#000000" stroke-width="1" stroke-opacity="0"></use></g></g><g><use xlink:href="#aft9fMqna" opacity="1" fill="#ffffff" fill-opacity="1"></use><g><use xlink:href="#aft9fMqna" opacity="1" fill-opacity="0" stroke="#000000" stroke-width="1" stroke-opacity="0"></use></g></g><g><use xlink:href="#b5TIBlsxC7" opacity="1" fill="#000000" fill-opacity="0"></use><g><use xlink:href="#b5TIBlsxC7" opacity="1" fill-opacity="0" stroke="#000000" stroke-width="1" stroke-opacity="0"></use></g></g><g><use xlink:href="#doIXmfci7" opacity="1" fill="#ffffff" fill-opacity="1"></use><g><use xlink:href="#doIXmfci7" opacity="1" fill-opacity="0" stroke="#000000" stroke-width="1" stroke-opacity="0"></use></g></g><g><use xlink:href="#gZnzyCRQx" opacity="1" fill="#000000" fill-opacity="0"></use><g><use xlink:href="#gZnzyCRQx" opacity="1" fill-opacity="0" stroke="#000000" stroke-width="1" stroke-opacity="0"></use></g></g><g><use xlink:href="#bYbRdyg03" opacity="1" fill="#ffffff" fill-opacity="1"></use><g><use xlink:href="#bYbRdyg03" opacity="1" fill-opacity="0" stroke="#000000" stroke-width="1" stroke-opacity="0"></use></g></g><g><use xlink:href="#l1nWy8ru0V" opacity="1" fill="#000000" fill-opacity="0"></use><g><use xlink:href="#l1nWy8ru0V" opacity="1" fill-opacity="0" stroke="#000000" stroke-width="1" stroke-opacity="0"></use></g></g><g><use xlink:href="#c6IPHrKUD" opacity="1" fill="#ffffff" fill-opacity="1"></use><g><use xlink:href="#c6IPHrKUD" opacity="1" fill-opacity="0" stroke="#000000" stroke-width="1" stroke-opacity="0"></use></g></g><g><use xlink:href="#d3G4Qz5pCO" opacity="1" fill="#000000" fill-opacity="0"></use><g><use xlink:href="#d3G4Qz5pCO" opacity="1" fill-opacity="0" stroke="#000000" stroke-width="1" stroke-opacity="0"></use></g></g><g><use xlink:href="#afnW3rzDs" opacity="1" fill="#ffffff" fill-opacity="1"></use><g><use xlink:href="#afnW3rzDs" opacity="1" fill-opacity="0" stroke="#000000" stroke-width="1" stroke-opacity="0"></use></g></g><g><use xlink:href="#e2KhB2Al0i" opacity="1" fill="#000000" fill-opacity="0"></use><g><use xlink:href="#e2KhB2Al0i" opacity="1" fill-opacity="0" stroke="#000000" stroke-width="1" stroke-opacity="0"></use></g></g><g><use xlink:href="#b1E7qDQmQL" opacity="1" fill="#ffffff" fill-opacity="1"></use><g><use xlink:href="#b1E7qDQmQL" opacity="1" fill-opacity="0" stroke="#000000" stroke-width="1" stroke-opacity="0"></use></g></g><g><use xlink:href="#aZwWBlVaG" opacity="1" fill="#000000" fill-opacity="0"></use><g><use xlink:href="#aZwWBlVaG" opacity="1" fill-opacity="0" stroke="#000000" stroke-width="1" stroke-opacity="0"></use></g></g><g><use xlink:href="#a7HdzTSaW" opacity="1" fill="#ffffff" fill-opacity="1"></use><g><use xlink:href="#a7HdzTSaW" opacity="1" fill-opacity="0" stroke="#000000" stroke-width="1" stroke-opacity="0"></use></g></g><g><use xlink:href="#b4aSHYdIY" opacity="1" fill="#000000" fill-opacity="0"></use><g><use xlink:href="#b4aSHYdIY" opacity="1" fill-opacity="0" stroke="#000000" stroke-width="1" stroke-opacity="0"></use></g></g><g><use xlink:href="#bazEXWaVQ" opacity="1" fill="#ffffff" fill-opacity="1"></use><g><use xlink:href="#bazEXWaVQ" opacity="1" fill-opacity="0" stroke="#000000" stroke-width="1" stroke-opacity="0"></use></g></g><g><use xlink:href="#b5y69Eru" opacity="1" fill="#000000" fill-opacity="0"></use><g><use xlink:href="#b5y69Eru" opacity="1" fill-opacity="0" stroke="#000000" stroke-width="1" stroke-opacity="0"></use></g></g><g><use xlink:href="#c1t5e8SD1g" opacity="1" fill="#ffffff" fill-opacity="1"></use><g><use xlink:href="#c1t5e8SD1g" opacity="1" fill-opacity="0" stroke="#000000" stroke-width="1" stroke-opacity="0"></use></g></g><g><use xlink:href="#g2NhGfuL4M" opacity="1" fill="#000000" fill-opacity="0"></use><g><use xlink:href="#g2NhGfuL4M" opacity="1" fill-opacity="0" stroke="#000000" stroke-width="1" stroke-opacity="0"></use></g></g><g><use xlink:href="#a1Nc4Bfnsv" opacity="1" fill="#ffffff" fill-opacity="1"></use><g><use xlink:href="#a1Nc4Bfnsv" opacity="1" fill-opacity="0" stroke="#000000" stroke-width="1" stroke-opacity="0"></use></g></g><g><use xlink:href="#a3Huf2tWn4" opacity="1" fill="#000000" fill-opacity="0"></use><g><use xlink:href="#a3Huf2tWn4" opacity="1" fill-opacity="0" stroke="#000000" stroke-width="1" stroke-opacity="0"></use></g></g><g><use xlink:href="#d3amqB7IOP" opacity="1" fill="#ffffff" fill-opacity="1"></use><g><use xlink:href="#d3amqB7IOP" opacity="1" fill-opacity="0" stroke="#000000" stroke-width="1" stroke-opacity="0"></use></g></g><g><use xlink:href="#d4Ky9xvAOZ" opacity="1" fill="#000000" fill-opacity="0"></use><g><use xlink:href="#d4Ky9xvAOZ" opacity="1" fill-opacity="0" stroke="#000000" stroke-width="1" stroke-opacity="0"></use></g></g><g><use xlink:href="#c164JEFYmH" opacity="1" fill="#ffffff" fill-opacity="1"></use><g><use xlink:href="#c164JEFYmH" opacity="1" fill-opacity="0" stroke="#000000" stroke-width="1" stroke-opacity="0"></use></g></g><g><use xlink:href="#ex2AG0hbF" opacity="1" fill="#000000" fill-opacity="0"></use><g><use xlink:href="#ex2AG0hbF" opacity="1" fill-opacity="0" stroke="#000000" stroke-width="1" stroke-opacity="0"></use></g></g><g><use xlink:href="#aH85eqoVv" opacity="1" fill="#ffffff" fill-opacity="1"></use><g><use xlink:href="#aH85eqoVv" opacity="1" fill-opacity="0" stroke="#000000" stroke-width="1" stroke-opacity="0"></use></g></g><g><use xlink:href="#b2iv2X3rSl" opacity="1" fill="#000000" fill-opacity="0"></use><g><use xlink:href="#b2iv2X3rSl" opacity="1" fill-opacity="0" stroke="#000000" stroke-width="1" stroke-opacity="0"></use></g></g><g><use xlink:href="#a101cnIR1a" opacity="1" fill="#ffffff" fill-opacity="1"></use><g><use xlink:href="#a101cnIR1a" opacity="1" fill-opacity="0" stroke="#000000" stroke-width="1" stroke-opacity="0"></use></g></g><g><use xlink:href="#c10ZhjEyJ" opacity="1" fill="#000000" fill-opacity="0"></use><g><use xlink:href="#c10ZhjEyJ" opacity="1" fill-opacity="0" stroke="#000000" stroke-width="1" stroke-opacity="0"></use></g></g><g><use xlink:href="#c1KODc63Zh" opacity="1" fill="#ffffff" fill-opacity="1"></use><g><use xlink:href="#c1KODc63Zh" opacity="1" fill-opacity="0" stroke="#000000" stroke-width="1" stroke-opacity="0"></use></g></g><g><use xlink:href="#a2tKtIbybm" opacity="1" fill="#000000" fill-opacity="0"></use><g><use xlink:href="#a2tKtIbybm" opacity="1" fill-opacity="0" stroke="#000000" stroke-width="1" stroke-opacity="0"></use></g></g><g><use xlink:href="#ebc8iToGa" opacity="1" fill="#ffffff" fill-opacity="1"></use><g><use xlink:href="#ebc8iToGa" opacity="1" fill-opacity="0" stroke="#000000" stroke-width="1" stroke-opacity="0"></use></g></g><g><use xlink:href="#b2WsYwCc" opacity="1" fill="#000000" fill-opacity="0"></use><g><use xlink:href="#b2WsYwCc" opacity="1" fill-opacity="0" stroke="#000000" stroke-width="1" stroke-opacity="0"></use></g></g><g><use xlink:href="#f4Vw9TGkQa" opacity="1" fill="#ffffff" fill-opacity="1"></use><g><use xlink:href="#f4Vw9TGkQa" opacity="1" fill-opacity="0" stroke="#000000" stroke-width="1" stroke-opacity="0"></use></g></g><g><use xlink:href="#e5Dn21l34" opacity="1" fill="#000000" fill-opacity="0"></use><g><use xlink:href="#e5Dn21l34" opacity="1" fill-opacity="0" stroke="#000000" stroke-width="1" stroke-opacity="0"></use></g></g><g><use xlink:href="#bbM54wz22" opacity="1" fill="#ffffff" fill-opacity="1"></use><g><use xlink:href="#bbM54wz22" opacity="1" fill-opacity="0" stroke="#000000" stroke-width="1" stroke-opacity="0"></use></g></g><g><use xlink:href="#bqQPR8Ufd" opacity="1" fill="#000000" fill-opacity="0"></use><g><use xlink:href="#bqQPR8Ufd" opacity="1" fill-opacity="0" stroke="#000000" stroke-width="1" stroke-opacity="0"></use></g></g><g><use xlink:href="#aPMfQ6ju" opacity="1" fill="#ffffff" fill-opacity="1"></use><g><use xlink:href="#aPMfQ6ju" opacity="1" fill-opacity="0" stroke="#000000" stroke-width="1" stroke-opacity="0"></use></g></g><g><use xlink:href="#kBMMiZGl8" opacity="1" fill="#000000" fill-opacity="0"></use><g><use xlink:href="#kBMMiZGl8" opacity="1" fill-opacity="0" stroke="#000000" stroke-width="1" stroke-opacity="0"></use></g></g><g><use xlink:href="#e5PcxR2VHV" opacity="1" fill="#ffffff" fill-opacity="1"></use><g><use xlink:href="#e5PcxR2VHV" opacity="1" fill-opacity="0" stroke="#000000" stroke-width="1" stroke-opacity="0"></use></g></g><g><use xlink:href="#bidLa0jhH" opacity="1" fill="#000000" fill-opacity="0"></use><g><use xlink:href="#bidLa0jhH" opacity="1" fill-opacity="0" stroke="#000000" stroke-width="1" stroke-opacity="0"></use></g></g><g><use xlink:href="#aibdLNHEX" opacity="1" fill="#ffffff" fill-opacity="1"></use><g><use xlink:href="#aibdLNHEX" opacity="1" fill-opacity="0" stroke="#000000" stroke-width="1" stroke-opacity="0"></use></g></g><g><use xlink:href="#a4ycSxtb" opacity="1" fill="#000000" fill-opacity="0"></use><g><use xlink:href="#a4ycSxtb" opacity="1" fill-opacity="0" stroke="#000000" stroke-width="1" stroke-opacity="0"></use></g></g><g><use xlink:href="#c2IYM7fbGX" opacity="1" fill="#ffffff" fill-opacity="1"></use><g><use xlink:href="#c2IYM7fbGX" opacity="1" fill-opacity="0" stroke="#000000" stroke-width="1" stroke-opacity="0"></use></g></g><g><use xlink:href="#c3BLIyjfRZ" opacity="1" fill="#000000" fill-opacity="0"></use><g><use xlink:href="#c3BLIyjfRZ" opacity="1" fill-opacity="0" stroke="#000000" stroke-width="1" stroke-opacity="0"></use></g></g><g><use xlink:href="#daNfEsHsL" opacity="1" fill="#ffffff" fill-opacity="1"></use><g><use xlink:href="#daNfEsHsL" opacity="1" fill-opacity="0" stroke="#000000" stroke-width="1" stroke-opacity="0"></use></g></g><g><use xlink:href="#e1GelNMkFb" opacity="1" fill="#000000" fill-opacity="0"></use><g><use xlink:href="#e1GelNMkFb" opacity="1" fill-opacity="0" stroke="#000000" stroke-width="1" stroke-opacity="0"></use></g></g><g><use xlink:href="#a1KW0Trage" opacity="1" fill="#ffffff" fill-opacity="1"></use><g><use xlink:href="#a1KW0Trage" opacity="1" fill-opacity="0" stroke="#000000" stroke-width="1" stroke-opacity="0"></use></g></g><g><use xlink:href="#b5civDfX15" opacity="1" fill="#000000" fill-opacity="0"></use><g><use xlink:href="#b5civDfX15" opacity="1" fill-opacity="0" stroke="#000000" stroke-width="1" stroke-opacity="0"></use></g></g></g></svg>